<?xml version="1.0" standalone="no"?>
<!DOCTYPE svg PUBLIC "-//W3C//DTD SVG 1.1//EN" "http://www.w3.org/Graphics/SVG/1.1/DTD/svg11.dtd" >
<svg xmlns="http://www.w3.org/2000/svg">
<metadata>Generated by IcoMoon</metadata>
<defs>
<font id="icomoon" horiz-adv-x="1024">
<font-face units-per-em="1024" ascent="960" descent="-64" />
<missing-glyph horiz-adv-x="1024" />
<glyph unicode="&#x20;" horiz-adv-x="512" d="" />
<glyph unicode="&#xe900;" glyph-name="market_active" d="M512 917.333c-260.267 0-469.333-209.067-469.333-469.333 0-59.733 12.8-115.2 29.867-170.667 42.667 8.533 72.533 64 106.667 119.467 38.4 68.267 76.8 136.533 140.8 136.533s89.6-55.467 110.933-106.667c21.333-55.467 38.4-85.333 81.067-85.333 38.4 0 59.733 59.733 85.333 123.733 29.867 85.333 68.267 196.267 170.667 196.267v-42.667c-72.533 0-102.4-85.333-132.267-166.4-25.6-76.8-55.467-153.6-123.733-153.6-72.533 0-98.133 64-119.467 110.933-21.333 51.2-38.4 81.067-72.533 81.067-38.4 0-72.533-55.467-102.4-110.933-34.133-59.733-68.267-123.733-123.733-140.8 76.8-153.6 234.667-260.267 418.133-260.267 260.267 0 469.333 209.067 469.333 469.333s-209.067 469.333-469.333 469.333z" />
<glyph unicode="&#xe901;" glyph-name="view" d="M512 128c-204.8 0-392.533 123.733-477.867 311.467l-4.267 8.533 4.267 8.533c85.333 187.733 268.8 311.467 477.867 311.467s392.533-123.733 477.867-311.467l4.267-8.533-4.267-8.533c-85.333-187.733-273.067-311.467-477.867-311.467zM76.8 448c76.8-170.667 247.467-277.333 435.2-277.333s354.133 106.667 435.2 277.333c-81.067 170.667-247.467 277.333-435.2 277.333s-354.133-106.667-435.2-277.333zM512 264.533c-102.4 0-183.467 81.067-183.467 183.467s81.067 183.467 183.467 183.467 183.467-81.067 183.467-183.467-81.067-183.467-183.467-183.467zM512 588.8c-76.8 0-140.8-64-140.8-140.8s64-140.8 140.8-140.8c76.8 0 140.8 64 140.8 140.8s-64 140.8-140.8 140.8z" />
<glyph unicode="&#xe902;" d="M989.867 456.533c-85.333 187.733-268.8 311.467-477.867 311.467s-392.533-123.733-477.867-311.467l-4.267-8.533 4.267-8.533c85.333-187.733 268.8-311.467 477.867-311.467 204.8 0 392.533 123.733 477.867 311.467l4.267 8.533-4.267 8.533z" />
<glyph unicode="&#xe903;" d="M512 264.533c-102.4 0-183.467 81.067-183.467 183.467s81.067 183.467 183.467 183.467 183.467-81.067 183.467-183.467-81.067-183.467-183.467-183.467zM512 588.8c-76.8 0-140.8-64-140.8-140.8s64-140.8 140.8-140.8c76.8 0 140.8 64 140.8 140.8s-64 140.8-140.8 140.8z" />
<glyph unicode="&#xe904;" glyph-name="guide" d="M512-21.333c-260.267 0-469.333 209.067-469.333 469.333s209.067 469.333 469.333 469.333 469.333-209.067 469.333-469.333-209.067-469.333-469.333-469.333zM512 874.667c-234.667 0-426.667-192-426.667-426.667s192-426.667 426.667-426.667c234.667 0 426.667 192 426.667 426.667s-192 426.667-426.667 426.667zM699.733 238.933c-4.267 0-4.267 0-8.533 0l-273.067 102.4c-4.267 4.267-8.533 8.533-12.8 12.8l-102.4 273.067c-4.267 8.533 0 17.067 4.267 25.6s17.067 8.533 25.6 4.267l273.067-102.4c4.267-4.267 8.533-8.533 12.8-12.8l102.4-273.067c4.267-8.533 0-17.067-4.267-21.333-4.267-8.533-12.8-8.533-17.067-8.533zM443.733 379.733l221.867-81.067-81.067 221.867-226.133 81.067 85.333-221.867z" />
<glyph unicode="&#xe905;" glyph-name="guide_active" d="M512 917.333c-260.267 0-469.333-209.067-469.333-469.333s209.067-469.333 469.333-469.333 469.333 209.067 469.333 469.333-209.067 469.333-469.333 469.333zM716.8 243.2c-4.267-4.267-8.533-4.267-17.067-4.267-4.267 0-4.267 0-8.533 0l-273.067 102.4c-4.267 4.267-8.533 8.533-12.8 12.8l-102.4 273.067c-4.267 8.533 0 17.067 4.267 25.6s17.067 8.533 25.6 4.267l273.067-102.4c4.267-4.267 8.533-8.533 12.8-12.8l102.4-273.067c4.267-8.533 0-17.067-4.267-25.6z" />
<glyph unicode="&#xe906;" glyph-name="news" d="M810.667 42.667h-597.333c-59.733 0-106.667 46.933-106.667 106.667v597.333c0 59.733 46.933 106.667 106.667 106.667h597.333c59.733 0 106.667-46.933 106.667-106.667v-597.333c0-59.733-46.933-106.667-106.667-106.667zM213.333 810.667c-34.133 0-64-29.867-64-64v-597.333c0-34.133 29.867-64 64-64h597.333c34.133 0 64 29.867 64 64v597.333c0 34.133-29.867 64-64 64h-597.333zM256 597.333h512v-42.667h-512v42.667zM256 341.333h341.333v-42.667h-341.333v42.667z" />
<glyph unicode="&#xe907;" glyph-name="news_active" d="M810.667 853.333h-597.333c-59.733 0-106.667-46.933-106.667-106.667v-597.333c0-59.733 46.933-106.667 106.667-106.667h597.333c59.733 0 106.667 46.933 106.667 106.667v597.333c0 59.733-46.933 106.667-106.667 106.667zM597.333 298.667h-341.333v42.667h341.333v-42.667zM768 554.667h-512v42.667h512v-42.667z" />
<glyph unicode="&#xe908;" glyph-name="market" d="M512-21.333c-260.267 0-469.333 209.067-469.333 469.333s209.067 469.333 469.333 469.333 469.333-209.067 469.333-469.333-209.067-469.333-469.333-469.333zM512 874.667c-234.667 0-426.667-192-426.667-426.667s192-426.667 426.667-426.667c234.667 0 426.667 192 426.667 426.667s-192 426.667-426.667 426.667zM110.933 247.467l-21.333 38.4c34.133 17.067 59.733 68.267 89.6 115.2 38.4 64 76.8 132.267 140.8 132.267s89.6-55.467 110.933-106.667c21.333-55.467 38.4-85.333 81.067-85.333 38.4 0 59.733 59.733 85.333 123.733 29.867 85.333 68.267 196.267 170.667 196.267v-42.667c-72.533 0-102.4-85.333-132.267-166.4-25.6-76.8-55.467-153.6-123.733-153.6-72.533 0-98.133 64-119.467 110.933-21.333 51.2-38.4 81.067-72.533 81.067-38.4 0-72.533-55.467-102.4-110.933s-59.733-106.667-106.667-132.267z" />
<glyph unicode="&#xe909;" glyph-name="like_active" d="M439.467 21.333c-17.067 0-68.267 12.8-68.267 42.667v465.067c34.133 29.867 174.933 153.6 174.933 307.2 0 4.267 0 8.533 0 12.8 0 17.067 0 29.867 34.133 29.867 0 0 25.6-4.267 46.933-34.133 25.6-38.4 46.933-119.467-4.267-294.4l-8.533-25.6c0 0 268.8 0 268.8 0 21.333 0 38.4-8.533 42.667-38.4v0c0 0-4.267-93.867-89.6-379.733-12.8-38.4-29.867-72.533-38.4-72.533h-358.4zM576 853.333c4.267 0 21.333-8.533 34.133-29.867 17.067-29.867 42.667-102.4-4.267-277.333l-12.8-55.467h298.667c17.067 0 17.067-8.533 17.067-17.067 0-12.8-8.533-106.667-89.6-375.467-4.267-21.333-17.067-46.933-25.6-59.733h-349.867c-17.067 0-46.933 12.8-46.933 21.333v456.533c46.933 38.4 170.667 162.133 174.933 311.467 0 4.267 0 8.533 0 12.8s0 8.533 0 8.533 0 4.267 4.267 4.267zM580.267 896c-64 0-51.2-51.2-55.467-59.733 0-166.4-174.933-298.667-174.933-298.667v-473.6c0-46.933 64-64 89.6-64h358.4c34.133 0 59.733 89.6 59.733 89.6 89.6 298.667 89.6 388.267 89.6 388.267-4.267 55.467-51.2 59.733-59.733 59.733 0 0-4.267 0-4.267 0h-238.933c93.867 341.333-64 358.4-64 358.4v0zM268.8 21.333c0 0 0 0 0 0s-4.267 0 0 0h-128c-8.533 0-8.533 4.267-8.533 8.533l-29.867 477.867c0 8.533 4.267 8.533 8.533 8.533h140.8c4.267 0 17.067-4.267 17.067-21.333v-473.6zM247.467 494.933v-452.267h-93.867l-29.867 452.267h123.733zM251.733 537.6h-140.8c-29.867 0-29.867-29.867-29.867-29.867l29.867-477.867c0-29.867 29.867-29.867 29.867-29.867h123.733c25.6 0 25.6 21.333 25.6 21.333v477.867c-4.267 38.4-38.4 38.4-38.4 38.4v0z" />
<glyph unicode="&#xe90a;" glyph-name="minus_sign" d="M85.333 874.667v-853.333h853.333v853.333h-853.333zM853.333 106.667h-682.667v682.667h682.667v-682.667zM341.333 490.667h341.333v-85.333h-341.333v85.333z" />
<glyph unicode="&#xe90b;" glyph-name="share" d="M512 29.867c-230.4 0-418.133 187.733-418.133 418.133s187.733 418.133 418.133 418.133v-64c-192 0-354.133-157.867-354.133-354.133s157.867-354.133 354.133-354.133 354.133 157.867 354.133 354.133h64c-4.267-230.4-187.733-418.133-418.133-418.133zM875.072 848.982l45.254-45.254-452.544-452.544-45.254 45.254 452.544 452.544zM925.867 584.533h-64v209.067h-213.333v64h277.333z" />
<glyph unicode="&#xe90c;" glyph-name="error_correction" d="M448 136.533c-200.533 0-362.667 162.133-362.667 362.667s162.133 358.4 362.667 358.4 362.667-162.133 362.667-358.4-162.133-362.667-362.667-362.667zM448 793.6c-162.133 0-298.667-132.267-298.667-294.4s132.267-298.667 298.667-298.667c162.133 0 298.667 132.267 298.667 298.667s-136.533 294.4-298.667 294.4zM850.993 44.855l-196.075 196.13 45.261 45.248 196.075-196.13-45.261-45.248zM325.835 664.504l289.628-289.628-45.254-45.254-289.628 289.628 45.254 45.254zM570.188 667.521l45.254-45.254-289.628-289.628-45.254 45.254 289.628 289.628z" />
<glyph unicode="&#xe90d;" glyph-name="time" d="M512 925.867c-264.533 0-477.867-213.333-477.867-477.867s213.333-482.133 477.867-482.133c264.533 0 482.133 217.6 482.133 482.133s-217.6 477.867-482.133 477.867zM512 34.133c-230.4 0-418.133 183.467-418.133 413.867s187.733 418.133 418.133 418.133c226.133 0 413.867-187.733 413.867-418.133 0-226.133-187.733-413.867-413.867-413.867zM546.133 780.8h-64v-349.867l170.667-170.667 46.933 46.933-153.6 157.867z" />
<glyph unicode="&#xe90e;" glyph-name="collection" d="M512 814.933l106.667-213.333 12.8-29.867 34.133-4.267 230.4-34.133-170.667-162.133-25.6-21.333 4.267-34.133 38.4-234.667-204.8 110.933-25.6 8.533-29.867-17.067-204.8-110.933 38.4 234.667 4.267 34.133-25.6 21.333-170.667 162.133 230.4 34.133 34.133 4.267 12.8 29.867 110.933 221.867zM512 900.267c-17.067 0-34.133-8.533-42.667-25.6l-119.467-247.467-273.067-42.667c-17.067 0-29.867-8.533-38.4-25.6-4.267-17.067 0-34.133 12.8-46.933l200.533-192-46.933-273.067c-4.267-17.067 4.267-34.133 17.067-46.933 8.533-4.267 17.067-8.533 29.867-8.533 4.267 0 12.8 0 17.067 4.267l243.2 132.267 243.2-132.267c8.533-4.267 12.8-4.267 21.333-4.267s17.067 4.267 25.6 8.533c12.8 8.533 21.333 29.867 17.067 46.933l-46.933 273.067 200.533 192c12.8 12.8 17.067 29.867 12.8 46.933s-21.333 29.867-38.4 29.867l-273.067 42.667-119.467 247.467c-8.533 12.8-25.6 21.333-42.667 21.333v0z" />
<glyph unicode="&#xe90f;" glyph-name="tra_up" d="M524.8 861.867c34.133 0 64-8.533 72.533-34.133v0l375.467-652.8c8.533-8.533 8.533-25.6 8.533-46.933 0-42.667-34.133-89.6-89.6-89.6v0h-759.467c-46.933 0-89.6 34.133-89.6 89.6 0 8.533 0 34.133 8.533 46.933v0 0 0l405.333 635.733c4.267 21.333 34.133 51.2 68.267 51.2z" />
<glyph unicode="&#xe910;" glyph-name="like" d="M887.467 541.867h-234.667c46.933 179.2 25.6 268.8-4.267 311.467s-64 46.933-68.267 46.933v0c-55.467 0-59.733-38.4-59.733-55.467 0-4.267 0-4.267 0-8.533v-4.267c0-162.133-170.667-294.4-170.667-294.4v0-473.6c0-46.933 64-68.267 93.867-68.267h358.4c38.4 0 64 85.333 64 93.867 89.6 294.4 89.6 388.267 89.6 388.267-8.533 64-64 64-68.267 64zM576 827.733v21.333c4.267 0 17.067-8.533 29.867-25.6 29.867-55.467 29.867-149.333-4.267-273.067l-12.8-64h307.2c12.8 0 12.8-4.267 12.8-12.8 0 0 0-81.067-89.6-375.467-4.267-17.067-12.8-42.667-21.333-55.467h-345.6c-17.067 0-38.4 12.8-42.667 17.067v452.267c17.067 21.333 162.133 149.333 166.4 315.733zM251.733 541.867h-140.8c-29.867 0-34.133-21.333-34.133-34.133l29.867-477.867c0-29.867 21.333-34.133 34.133-34.133h123.733c25.6 0 29.867 17.067 29.867 25.6v477.867c-4.267 42.667-42.667 42.667-42.667 42.667zM243.2 490.667v-443.733h-85.333l-29.867 443.733h115.2z" />
<glyph unicode="&#xe911;" glyph-name="twitter" d="M962.286 726.857q-38.286-56-92.571-95.429 0.571-8 0.571-24 0-74.286-21.714-148.286t-66-142-105.429-120.286-147.429-83.429-184.571-31.143q-154.857 0-283.429 82.857 20-2.286 44.571-2.286 128.571 0 229.143 78.857-60 1.143-107.429 36.857t-65.143 91.143q18.857-2.857 34.857-2.857 24.571 0 48.571 6.286-64 13.143-106 63.714t-42 117.429v2.286q38.857-21.714 83.429-23.429-37.714 25.143-60 65.714t-22.286 88q0 50.286 25.143 93.143 69.143-85.143 168.286-136.286t212.286-56.857q-4.571 21.714-4.571 42.286 0 76.571 54 130.571t130.571 54q80 0 134.857-58.286 62.286 12 117.143 44.571-21.143-65.714-81.143-101.714 53.143 5.714 106.286 28.571z" />
<glyph unicode="&#xe912;" glyph-name="weibos" d="M733.867 409.6c-17.067 0-25.6 8.533-17.067 25.6s25.6 64-8.533 98.133c-34.133 34.133-110.933 21.333-162.133 0s-51.2-8.533-51.2 8.533c0 17.067 29.867 106.667-55.467 119.467-115.2 17.067-264.533-128-315.733-209.067-76.8-123.733-64-209.067-64-209.067v0c8.533-115.2 179.2-209.067 388.267-209.067 179.2 0 332.8 68.267 375.467 162.133v0c4.267 12.8 8.533 17.067 12.8 29.867 8.533 25.6 12.8 59.733 0 93.867-25.6 68.267-89.6 89.6-102.4 89.6v0zM418.133 81.067c-149.333 0-268.8 81.067-268.8 179.2s123.733 179.2 268.8 179.2 268.8-81.067 268.8-179.2-119.467-179.2-268.8-179.2zM785.067 477.867c4.267 0 4.267 0 8.533 0 8.533 0 17.067 4.267 17.067 17.067 4.267 12.8 8.533 25.6 8.533 42.667 0 59.733-51.2 106.667-106.667 106.667-17.067 0-29.867-4.267-42.667-8.533-8.533-8.533-17.067-17.067-8.533-29.867 4.267-12.8 17.067-17.067 25.6-12.8s17.067 4.267 25.6 4.267c34.133 0 64-29.867 64-64 0-8.533 0-17.067-4.267-25.6 0-12.8 4.267-25.6 12.8-29.867v0zM712.533 776.533c-21.333 0-51.2-4.267-72.533-12.8-17.067-4.267-25.6-21.333-21.333-42.667 8.533-17.067 25.6-25.6 42.667-17.067 17.067 4.267 34.133 8.533 55.467 8.533 102.4 0 187.733-85.333 187.733-187.733 0-17.067-4.267-38.4-8.533-55.467s4.267-34.133 21.333-42.667c4.267 0 8.533 0 12.8 0 17.067 0 25.6 8.533 29.867 21.333 8.533 21.333 12.8 51.2 12.8 72.533-4.267 140.8-119.467 256-260.267 256v0zM392.533 375.467c-81.067 0-145.067-55.467-145.067-123.733s64-123.733 145.067-123.733 145.067 55.467 145.067 123.733c0 64-64 123.733-145.067 123.733zM345.6 166.4c-25.6 0-51.2 21.333-51.2 51.2s21.333 51.2 51.2 51.2 51.2-21.333 51.2-51.2c0-29.867-21.333-51.2-51.2-51.2zM443.733 256c-8.533-12.8-17.067-17.067-25.6-8.533-8.533 4.267-12.8 17.067-4.267 25.6 4.267 12.8 17.067 17.067 21.333 12.8 12.8-4.267 12.8-17.067 8.533-29.867z" />
<glyph unicode="&#xe913;" glyph-name="change_up" d="M644.267 128v640c0 12.8-8.533 25.6-21.333 29.867-8.533 4.267-25.6 0-34.133-8.533l-200.533-200.533c-12.8-12.8-12.8-34.133 0-46.933v0c12.8-12.8 34.133-12.8 46.933 0v0l145.067 145.067v-554.667c0-17.067 17.067-34.133 34.133-34.133s29.867 12.8 29.867 29.867v0z" />
<glyph unicode="&#xe914;" glyph-name="change_down" d="M379.733 768v-640c0-12.8 8.533-25.6 21.333-29.867 8.533-4.267 25.6 0 34.133 8.533l200.533 200.533c12.8 12.8 12.8 34.133 0 46.933v0c-12.8 12.8-34.133 12.8-46.933 0v0l-145.067-145.067v554.667c0 17.067-17.067 34.133-34.133 34.133s-29.867-12.8-29.867-29.867v0z" />
<glyph unicode="&#xe915;" glyph-name="search" d="M448 136.533c-200.533 0-362.667 162.133-362.667 362.667s162.133 358.4 362.667 358.4c200.533 0 362.667-162.133 362.667-358.4s-162.133-362.667-362.667-362.667zM448 793.6c-162.133 0-298.667-132.267-298.667-294.4s132.267-298.667 298.667-298.667c162.133 0 298.667 132.267 298.667 298.667s-136.533 294.4-298.667 294.4zM702.337 287.095l196.075-196.13-45.261-45.248-196.075 196.13 45.261 45.248z" />
<glyph unicode="&#xe916;" glyph-name="big_plus" d="M93.867 477.867h836.267v-64h-836.267v64zM482.133 866.133h64v-836.267h-64v836.267z" />
<glyph unicode="&#xe917;" glyph-name="facebook" d="M802.133 857.6c17.067 0 29.867-4.267 46.933-8.533 12.8-4.267 25.6-12.8 38.4-25.6s17.067-21.333 25.6-38.4 8.533-29.867 8.533-46.933v-584.533c0-17.067-4.267-29.867-8.533-46.933-4.267-12.8-12.8-25.6-25.6-38.4-8.533-8.533-21.333-17.067-38.4-25.6-12.8-4.267-29.867-8.533-46.933-8.533h-174.933v349.867h59.733c17.067 0 29.867 4.267 42.667 17.067s17.067 25.6 17.067 42.667-4.267 29.867-17.067 42.667-25.6 17.067-42.667 17.067h-59.733c0 25.6 4.267 38.4 17.067 46.933 8.533 8.533 21.333 12.8 34.133 12.8h59.733c17.067 0 29.867 4.267 38.4 17.067s12.8 25.6 12.8 38.4-4.267 29.867-12.8 38.4-21.333 17.067-38.4 17.067h-102.4c-21.333 0-38.4-4.267-55.467-12.8s-29.867-17.067-38.4-29.867c-12.8-12.8-17.067-25.6-25.6-42.667-4.267-17.067-8.533-34.133-8.533-51.2v-42.667h-59.733c-17.067 0-29.867-4.267-42.667-17.067s-17.067-25.6-17.067-42.667 4.267-29.867 17.067-42.667c12.8-12.8 25.6-17.067 42.667-17.067h59.733v-349.867h-294.4c-17.067 0-29.867 4.267-46.933 8.533-12.8 4.267-25.6 12.8-38.4 25.6-8.533 8.533-17.067 21.333-25.6 38.4-4.267 12.8-8.533 29.867-8.533 46.933v584.533c0 17.067 4.267 29.867 8.533 46.933s12.8 25.6 25.6 38.4c8.533 8.533 21.333 17.067 38.4 25.6s29.867 8.533 46.933 8.533c4.267 8.533 588.8 8.533 588.8 8.533z" />
<glyph unicode="&#xe918;" glyph-name="linkin" d="M512-8.533c-132.267 0-264.533 0-396.8 0-21.333 0-42.667 4.267-55.467 21.333-8.533 12.8-17.067 29.867-17.067 42.667 0 264.533 0 524.8 0 789.333 0 34.133 25.6 59.733 64 64 4.267 0 8.533 0 12.8 0 264.533 0 524.8 0 789.333 0 17.067 0 29.867-4.267 42.667-8.533 21.333-8.533 34.133-29.867 34.133-55.467 0-260.267 0-524.8 0-785.067 0-38.4-29.867-68.267-72.533-68.267-102.4 0-209.067 0-311.467 0-29.867 0-59.733 0-89.6 0zM405.333 563.2c0-149.333 0-294.4 0-439.467 46.933 0 93.867 0 145.067 0 0 17.067 0 29.867 0 42.667 0 72.533 0 145.067 4.267 217.6 4.267 46.933 34.133 68.267 81.067 68.267 38.4 0 64-25.6 64-72.533 4.267-76.8 0-153.6 4.267-230.4 0-8.533 0-17.067 0-25.6 46.933 0 93.867 0 140.8 0 0 98.133 0 192 0 290.133 0 38.4-8.533 81.067-34.133 110.933-55.467 68.267-187.733 68.267-247.467 4.267-4.267-4.267-8.533-12.8-12.8-17.067 0 0-4.267 0-4.267 4.267 0 17.067 0 29.867 0 46.933-51.2 0-93.867 0-140.8 0zM320 563.2c-42.667 0-81.067 0-123.733 0-17.067 0-21.333-4.267-21.333-21.333 0-132.267 0-264.533 0-396.8 0-8.533 0-12.8 0-21.333 46.933 0 93.867 0 140.8 0 4.267 145.067 4.267 294.4 4.267 439.467zM332.8 704c0 46.933-38.4 81.067-85.333 81.067s-81.067-38.4-81.067-85.333c0-42.667 38.4-81.067 85.333-81.067 42.667 4.267 81.067 38.4 81.067 85.333z" />
<glyph unicode="&#xe919;" glyph-name="reddit" d="M938.667 469.333c0 59.733-46.933 106.667-106.667 106.667-25.6 0-51.2-8.533-68.267-25.6-64 38.4-140.8 64-230.4 68.267l46.933 170.667 145.067-42.667c0-46.933 38.4-85.333 85.333-85.333s85.333 38.4 85.333 85.333c0 46.933-38.4 85.333-85.333 85.333-29.867 0-59.733-17.067-72.533-42.667l-170.667 42.667c-12.8 4.267-21.333-4.267-25.6-17.067l-51.2-196.267c-85.333-4.267-166.4-29.867-230.4-68.267-17.067 17.067-42.667 25.6-68.267 25.6-59.733 0-106.667-46.933-106.667-106.667 0-38.4 17.067-68.267 46.933-89.6l-4.267-38.4c0-153.6 170.667-277.333 384-277.333s384 123.733 384 277.333l-4.267 38.4c29.867 21.333 46.933 51.2 46.933 89.6zM384 456.533c29.867 0 51.2-25.6 51.2-51.2s-21.333-51.2-51.2-51.2c-29.867 0-51.2 21.333-51.2 51.2s21.333 51.2 51.2 51.2zM674.133 226.133c-76.8-46.933-247.467-46.933-324.267 0-8.533 8.533-12.8 21.333-4.267 29.867s21.333 12.8 29.867 4.267c51.2-38.4 221.867-38.4 273.067 0 8.533 8.533 21.333 4.267 29.867-4.267s4.267-21.333-4.267-29.867zM640 354.133c-29.867 0-51.2 25.6-51.2 51.2 0 29.867 25.6 51.2 51.2 51.2 29.867 0 51.2-25.6 51.2-51.2 0-29.867-21.333-51.2-51.2-51.2z" />
<glyph unicode="&#xe91a;" glyph-name="delete" d="M172.217 877.935l751.223-751.223-60.339-60.339-751.223 751.223 60.339 60.339zM863.088 880.951l60.339-60.339-751.223-751.223-60.339 60.339 751.223 751.223z" />
<glyph unicode="&#xe91b;" glyph-name="garbage_cans" d="M938.667 733.867h-264.533v55.467c0 38.4-29.867 68.267-68.267 68.267h-187.733c-38.4 0-72.533-29.867-72.533-68.267v-55.467h-260.267v-64h64l29.867-597.333v-4.267c8.533-38.4 38.4-64 72.533-64h520.533c42.667 0 76.8 29.867 72.533 68.267l29.867 597.333h64v64zM409.6 789.333c0 4.267 4.267 4.267 4.267 4.267h187.733c4.267 0 4.267-4.267 4.267-4.267v-55.467h-196.267v55.467zM780.8 76.8c0-4.267-8.533-4.267-12.8-4.267h-516.267c-4.267 0-8.533 4.267-12.8 12.8l-25.6 584.533h597.333l-29.867-593.067zM379.733 529.067h64v-311.467h-64v311.467zM584.533 529.067h64v-311.467h-64v311.467z" />
<glyph unicode="&#xe91c;" glyph-name="settings" d="M512 251.733c-106.667 0-196.267 85.333-196.267 196.267s85.333 196.267 196.267 196.267 196.267-85.333 196.267-196.267-89.6-196.267-196.267-196.267zM512 580.267c-72.533 0-132.267-59.733-132.267-132.267s59.733-132.267 132.267-132.267 132.267 59.733 132.267 132.267-59.733 132.267-132.267 132.267zM512 17.067c-29.867 0-59.733 4.267-85.333 8.533l-12.8 4.267-29.867 51.2c-25.6 42.667-68.267 68.267-119.467 68.267h-59.733l-8.533 8.533c-38.4 42.667-68.267 93.867-89.6 149.333l-4.267 12.8 29.867 51.2c25.6 42.667 25.6 93.867 0 136.533l-34.133 59.733 4.267 12.8c17.067 55.467 46.933 106.667 89.6 149.333l8.533 8.533h59.733c46.933 0 93.867 25.6 119.467 68.267l29.867 51.2 17.067 12.8c55.467 12.8 115.2 12.8 174.933 0l12.8-4.267 29.867-51.2c25.6-42.667 68.267-68.267 119.467-68.267h59.733l8.533-8.533c38.4-42.667 68.267-93.867 85.333-149.333l4.267-12.8-29.867-51.2c-25.6-42.667-25.6-93.867 0-136.533l29.867-51.2-4.267-12.8c-17.067-55.467-46.933-106.667-85.333-149.333l-8.533-8.533h-59.733c-46.933 0-93.867-25.6-119.467-68.267l-29.867-51.2-17.067-21.333c-25.6-4.267-55.467-8.533-85.333-8.533zM452.267 89.6c38.4-8.533 81.067-8.533 119.467 0l17.067 29.867c34.133 59.733 102.4 98.133 174.933 98.133h29.867c25.6 29.867 46.933 68.267 59.733 106.667l-17.067 29.867c-34.133 59.733-34.133 136.533 0 200.533l17.067 21.333c-12.8 38.4-34.133 72.533-59.733 106.667h-29.867c-72.533 0-136.533 38.4-174.933 98.133l-17.067 29.867c-38.4 8.533-81.067 8.533-119.467 0l-17.067-29.867c-34.133-59.733-102.4-98.133-170.667-102.4h-29.867c-29.867-29.867-51.2-64-64-102.4l17.067-29.867c34.133-59.733 34.133-136.533 0-200.533l-17.067-25.6c12.8-38.4 34.133-72.533 59.733-106.667h29.867c72.533 0 136.533-38.4 174.933-98.133l17.067-25.6z" />
<glyph unicode="&#xe91d;" glyph-name="plus" d="M153.6 507.733h725.333v-64h-725.333v64zM486.4 836.267h64v-725.333h-64v725.333z" />
<glyph unicode="&#xe91e;" glyph-name="edit" d="M866.133 588.8v-435.2c0-34.133-29.867-64-64-64h-580.267c-34.133 0-64 29.867-64 64v584.533c0 34.133 29.867 64 64 64h435.2v85.333h-435.2c-85.333 0-149.333-64-149.333-149.333v-584.533c0-85.333 64-149.333 149.333-149.333h580.267c85.333 0 149.333 64 149.333 149.333v435.2h-85.333zM939.424 814.805l-512.883-512.883-60.339 60.339 512.883 512.883 60.339-60.339z" />
<glyph unicode="&#xe91f;" glyph-name="message" d="M746.667 59.733c-8.533 0-17.067 4.267-21.333 8.533l-123.733 123.733h-354.133c-89.6 0-162.133 76.8-162.133 166.4v290.133c0 89.6 72.533 162.133 162.133 162.133h529.067c89.6 0 162.133-72.533 162.133-162.133v-294.4c0-89.6-72.533-162.133-162.133-162.133v-102.4c0-12.8-8.533-25.6-21.333-29.867 0 0-4.267 0-8.533 0zM247.467 750.933c-55.467 0-98.133-42.667-98.133-98.133v-294.4c0-55.467 42.667-98.133 98.133-98.133h366.933c8.533 0 17.067-4.267 21.333-8.533l76.8-76.8v55.467c0 17.067 12.8 34.133 34.133 34.133h29.867c55.467 0 98.133 42.667 98.133 98.133v285.867c0 55.467-42.667 98.133-98.133 98.133h-529.067zM290.133 550.4h64v-64h-64v64zM482.133 550.4h64v-64h-64v64zM669.867 550.4h64v-64h-64v64z" />
<glyph unicode="&#xe920;" glyph-name="succeed" d="M512 883.2c-238.933 0-435.2-196.267-435.2-435.2s196.267-435.2 435.2-435.2c238.933 0 435.2 196.267 435.2 435.2s-196.267 435.2-435.2 435.2zM426.667 230.4l-209.067 209.067 46.933 46.933 162.133-162.133 328.533 328.533 46.933-46.933-375.467-375.467z" />
<glyph unicode="&#xe921;" glyph-name="technology" d="M512 499.2c-8.533 0-17.067 4.267-25.6 4.267l-76.8-132.267c12.8-12.8 21.333-29.867 25.6-51.2h153.6c4.267 17.067 12.8 34.133 25.6 51.2l-76.8 132.267c-4.267-4.267-17.067-4.267-25.6-4.267zM516.267 546.133c25.6 0 51.2 25.6 51.2 51.2s-25.6 51.2-51.2 51.2-51.2-25.6-51.2-51.2 21.333-51.2 51.2-51.2zM337.067 349.867c-29.867 0-51.2-25.6-51.2-51.2s25.6-51.2 51.2-51.2 51.2 25.6 51.2 51.2-21.333 51.2-51.2 51.2zM512 960c-281.6 0-512-230.4-512-512s230.4-512 512-512 512 230.4 512 512-230.4 512-512 512zM686.933 196.267c-42.667 0-85.333 34.133-98.133 81.067h-153.6c-8.533-51.2-51.2-81.067-98.133-81.067-55.467 0-102.4 46.933-102.4 102.4s46.933 102.4 102.4 102.4c8.533 0 17.067-4.267 25.6-4.267l81.067 128c-21.333 21.333-34.133 42.667-34.133 72.533 0 55.467 46.933 102.4 102.4 102.4s102.4-46.933 102.4-102.4c0-29.867-12.8-51.2-34.133-72.533l76.8-132.267c4.267 4.267 17.067 4.267 25.6 4.267 55.467 0 98.133-42.667 98.133-98.133s-38.4-102.4-93.867-102.4zM686.933 349.867c-29.867 0-51.2-25.6-51.2-51.2s25.6-51.2 51.2-51.2 51.2 25.6 51.2 51.2-21.333 51.2-51.2 51.2z" />
<glyph unicode="&#xe922;" glyph-name="exchange" d="M512 960c-281.6 0-512-230.4-512-512s230.4-512 512-512 512 230.4 512 512-230.4 512-512 512zM627.2 290.133c-4.267 0-12.8 0-21.333 0h-179.2c-4.267 0-12.8 0-17.067 0s-8.533 0-12.8 0c-72.533 12.8-128 81.067-128 157.867v17.067c0 21.333 8.533 38.4 17.067 59.733h-34.133v51.2h89.6c12.8 0 21.333-8.533 25.6-17.067 4.267-12.8 0-25.6-8.533-29.867-17.067-17.067-29.867-38.4-34.133-64v-4.267c0-4.267 0-8.533 0-12.8 0-59.733 46.933-106.667 106.667-106.667h128l89.6-51.2h-21.333zM772.267 320h-85.333c-12.8 0-25.6 8.533-25.6 17.067-4.267 12.8 0 21.333 8.533 29.867 17.067 17.067 29.867 38.4 34.133 64v0c0 4.267 0 8.533 0 12.8 0 59.733-46.933 106.667-106.667 106.667h-119.467l-89.6 55.467 17.067 4.267c8.533 0 12.8 0 17.067 0h174.933c12.8 0 21.333 0 34.133-4.267 72.533-12.8 128-81.067 128-157.867v-17.067c0-21.333-8.533-38.4-17.067-59.733h25.6v-51.2z" />
<glyph unicode="&#xe923;" glyph-name="media_hot" d="M512 960c-281.6 0-512-230.4-512-512s230.4-512 512-512 512 230.4 512 512-230.4 512-512 512zM507.733 243.2h-59.733v12.8c0 51.2-42.667 93.867-93.867 93.867h-12.8v55.467h12.8c42.667 0 81.067-17.067 110.933-46.933s42.667-68.267 42.667-106.667v-8.533zM631.467 243.2h-59.733v12.8c0 119.467-98.133 217.6-217.6 217.6h-12.8v59.733h12.8c153.6 0 277.333-123.733 277.333-277.333v-12.8zM759.467 238.933h-59.733v12.8c0 187.733-153.6 345.6-345.6 345.6h-12.8v59.733h12.8c221.867 0 405.333-183.467 405.333-405.333v-12.8z" />
<glyph unicode="&#xe924;" glyph-name="rank_value" d="M512 960c-281.6 0-512-230.4-512-512s230.4-512 512-512 512 230.4 512 512-230.4 512-512 512zM674.133 477.867h-128v-85.333h102.4v-64h-102.4v-123.733h-64v123.733h-106.667v64h102.4v85.333h-128v64h123.733l-110.933 110.933 46.933 46.933 102.4-106.667 106.667 106.667 46.933-46.933-115.2-115.2h123.733v-59.733z" />
<glyph unicode="&#xe925;" glyph-name="down" d="M473.6 213.333l-392.533 392.533c-21.333 21.333-21.333 55.467 0 76.8s55.467 21.333 76.8 0l354.133-354.133 354.133 354.133c21.333 21.333 55.467 21.333 76.8 0s21.333-55.467 0-76.8l-392.533-392.533c-21.333-21.333-55.467-21.333-76.8 0z" />
<glyph unicode="&#xe926;" glyph-name="time_solid" d="M512 960c-281.6 0-512-230.4-512-512s230.4-512 512-512 512 230.4 512 512-230.4 512-512 512zM755.2 405.333h-273.067v384h64v-320h209.067v-64z" />
<glyph unicode="&#xe927;" glyph-name="fire" d="M421.4 0s-387.3 87.4-214.2 521.2c0 0 39.3-48.2 33.9-71.4 0 0 30.8 109.5 97.3 174.9 57.1 56.2 115.1 214.2 61.6 271.3 0 0 265-57.1 294.5-342.7 0 0 33.9 91 103.5 100 0 0-21.4-50 0-125 0 0 219.5-385.5-158.8-515.8 0 0 113.4 132.1-127.1 358.8 0 0-56.7-121.4-90.6-164.2-0.1-0.1-94.7-108.9-0.1-207.1z" />
<glyph unicode="&#xe928;" glyph-name="none_selected" d="M512 917.333c-260.267 0-469.333-213.333-469.333-469.333s209.067-469.333 469.333-469.333 469.333 209.067 469.333 469.333-209.067 469.333-469.333 469.333zM891.733 448c0-209.067-170.667-379.733-379.733-379.733s-384 170.667-384 379.733 170.667 379.733 379.733 379.733 384-170.667 384-379.733z" />
<glyph unicode="&#xe929;" glyph-name="selected" d="M512 917.333c-260.267 0-469.333-213.333-469.333-469.333s209.067-469.333 469.333-469.333 469.333 209.067 469.333 469.333-209.067 469.333-469.333 469.333zM891.733 448c0-209.067-170.667-379.733-379.733-379.733s-384 170.667-384 379.733 170.667 379.733 379.733 379.733 384-170.667 384-379.733zM238.933 448c0-153.6 123.733-273.067 273.067-273.067s273.067 123.733 273.067 273.067-119.467 273.067-273.067 273.067-273.067-123.733-273.067-273.067z" />
<glyph unicode="&#xe92a;" glyph-name="wechat" d="M571.733 448c-8.533 0-21.333-8.533-21.333-21.333 0-8.533 8.533-21.333 21.333-21.333 17.067 0 25.6 8.533 25.6 21.333s-12.8 21.333-25.6 21.333v0 0 0zM503.467 546.133c17.067 0 25.6 8.533 25.6 25.6s-8.533 25.6-25.6 25.6c-17.067 0-29.867-8.533-29.867-25.6 0-12.8 17.067-25.6 29.867-25.6v0 0 0zM512 896c-247.467 0-448-200.533-448-448s200.533-448 448-448 448 200.533 448 448-200.533 448-448 448v0 0 0zM426.667 332.8c-25.6 0-46.933 4.267-72.533 12.8l-72.533-38.4 21.333 64c-51.2 38.4-81.067 81.067-81.067 140.8 0 98.133 93.867 174.933 209.067 174.933 102.4 0 192-59.733 209.067-145.067-8.533 0-12.8 4.267-21.333 4.267-98.133 0-174.933-72.533-174.933-162.133 0-17.067 4.267-29.867 4.267-42.667-8.533-8.533-17.067-8.533-21.333-8.533v0 0 0zM729.6 264.533l12.8-51.2-55.467 29.867c-21.333-4.267-42.667-12.8-64-12.8-98.133 0-174.933 68.267-174.933 149.333s76.8 149.333 174.933 149.333c93.867 0 174.933-68.267 174.933-149.333 4.267-46.933-25.6-85.333-68.267-115.2v0 0 0zM358.4 597.333c-17.067 0-29.867-8.533-29.867-25.6s17.067-25.6 29.867-25.6c17.067 0 25.6 12.8 25.6 25.6 0 17.067-8.533 25.6-25.6 25.6v0 0 0zM686.933 448c-8.533 0-21.333-8.533-21.333-21.333 0-8.533 8.533-21.333 21.333-21.333s25.6 8.533 25.6 21.333c0 12.8-12.8 21.333-25.6 21.333v0 0 0z" />
<glyph unicode="&#xe92b;" glyph-name="weibo" d="M413.422 356.65c-20.053 0-38.503-16.509-38.813-34.706-0.253-15.525 12.797-27.338 30.291-27.338 20.813-0.028 38.222 15.638 38.362 34.481 0.141 16.059-12.403 27.563-29.841 27.563zM463.316 370.487c-5.962-2.925-11.7-7.228-15.806-12.431-0.872-1.125 5.231-7.763 10.181-14.878 6.356 6.975 12.094 10.997 14.203 16.425 0.928 2.334-7.594 11.391-8.578 10.884zM589.259 449.378c-9.675 6.047-20.081 11.109-30.712 15.412-35.578 14.231-72.9 18.45-110.841 15.131-57.375-4.978-110.362-21.881-151.566-64.434-47.784-49.303-41.316-111.712 14.934-150.834 38.081-26.438 81.309-35.522 126.984-34.425 8.297 0 16.622-0.647 24.863 0.113 52.003 4.978 99.9 20.756 139.584 55.941 57.994 51.328 52.172 122.006-13.247 163.097zM524.909 304.45c-19.744-29.925-54.703-48.094-92.672-48.291-47.869-0.309-83.784 26.578-90.141 68.4-1.406 8.55-1.013 17.944 0.928 26.325 9.647 41.034 38.053 63.956 76.725 74.306 38.194 10.125 73.716 3.516 101.503-26.831 23.006-25.116 23.934-63.394 3.656-93.909zM512.028 898c-248.541 0-450.028-201.487-450.028-450s201.487-450 450-450c248.512 0 450 201.487 450 450s-201.459 450-449.972 450zM726.622 313.647c-38.447-59.147-97.509-88.481-163.491-104.653-31.922-7.875-65.25-10.294-82.575-12.938-81.816 2.025-145.097 14.119-202.162 49.584-71.916 44.691-92.869 111.656-55.266 187.594 40.387 81.45 103.219 141.694 185.681 180.422 15.3 7.172 32.709 11.25 49.5 13.331 34.594 4.303 54.787-15.328 53.916-50.147-0.197-7.622-1.913-15.131-2.362-22.809-0.337-6.553 0.141-13.219 0.309-19.8 6.722 1.097 13.5 1.8 20.081 3.263 26.663 5.709 53.044 15.244 79.903 16.678 46.631 2.475 67.528-25.763 53.353-70.059-6.103-18.872-1.547-25.228 16.088-31.556 66.319-23.906 85.416-79.903 47.025-138.909zM691.831 561.963c-10.969 13.95-35.859 17.184-43.734 17.269-11.644 0.084-21.037 9.619-20.925 21.234 0.084 11.588 9.506 20.897 21.037 20.897h0.169c5.147 0 51.3-1.322 76.556-33.328 10.013-12.684 20.278-35.241 12.15-70.341-2.25-9.788-10.941-16.369-20.531-16.369-1.547 0-3.122 0.197-4.725 0.591-11.363 2.616-18.422 13.95-15.806 25.256 3.544 15.356 2.166 26.747-4.191 34.791zM815.834 493c-1.659-10.35-10.575-17.831-20.813-17.831-1.041 0-2.194 0.141-3.291 0.309-11.475 1.772-19.322 12.572-17.55 24.075 7.819 49.753-0.141 88.453-23.766 114.891-41.119 46.069-116.494 43.341-117.253 43.341-11.756-0.478-21.487 8.522-21.994 20.109-0.478 11.616 8.578 21.459 20.166 21.994 3.909 0.141 96.188 3.375 150.525-57.347 32.4-36.366 43.819-86.681 33.975-149.541z" />
<glyph unicode="&#xe92c;" glyph-name="copy" d="M674.133 379.733h-238.933c-4.267 0-8.533-4.267-8.533-8.533v-8.533c0-4.267 4.267-8.533 8.533-8.533h238.933c4.267 0 8.533 4.267 8.533 8.533v8.533c0 4.267-4.267 8.533-8.533 8.533zM435.2 418.133h238.933c4.267 0 8.533 4.267 8.533 8.533v8.533c0 4.267-4.267 8.533-8.533 8.533h-238.933c-4.267 0-8.533-4.267-8.533-8.533v-8.533c-4.267-4.267 0-8.533 8.533-8.533zM674.133 512h-238.933c-4.267 0-8.533-4.267-8.533-8.533v-8.533c0-4.267 4.267-8.533 8.533-8.533h238.933c4.267 0 8.533 4.267 8.533 8.533v8.533c0 4.267-4.267 8.533-8.533 8.533zM512 896c-247.467 0-448-200.533-448-448s200.533-448 448-448 448 200.533 448 448c4.267 247.467-200.533 448-448 448zM366.933 260.267h-42.667c-4.267 0-8.533 4.267-8.533 8.533v392.533c0 4.267 4.267 8.533 8.533 8.533h311.467c4.267 0 8.533-4.267 8.533-8.533v-42.667h-277.333v-358.4zM708.267 320c0 0 0-4.267-4.267-12.8-4.267-4.267-8.533-12.8-12.8-17.067-4.267-8.533-12.8-12.8-17.067-21.333-8.533-8.533-12.8-17.067-21.333-21.333-4.267-4.267-12.8-12.8-17.067-17.067s-8.533-4.267-8.533-4.267h-209.067c-4.267 0-8.533 0-12.8 4.267s-4.267 8.533-4.267 17.067v320c0 4.267 0 12.8 4.267 17.067s8.533 4.267 12.8 4.267h273.067c4.267 0 8.533 0 12.8-4.267s4.267-8.533 4.267-17.067v-247.467z" />
<glyph unicode="&#xe92d;" glyph-name="rank_price" d="M512-43.52c-271.36 0-491.52 220.16-491.52 491.52s220.16 491.52 491.52 491.52c271.36 0 491.52-220.16 491.52-491.52s-220.16-491.52-491.52-491.52zM512 852.48c-225.28 0-404.48-184.32-404.48-404.48s184.32-404.48 404.48-404.48 404.48 184.32 404.48 404.48-179.2 404.48-404.48 404.48zM363.52 535.040h302.080v-81.92h-302.080v81.92zM389.12 381.44h245.76v-81.92h-245.76v81.92zM471.040 494.080h81.92v-291.84h-81.92v291.84zM558.080 642.56l-46.080-46.080-46.080 46.080h-117.76l163.84-163.84 163.84 163.84z" />
<glyph unicode="&#xe92e;" glyph-name="total" d="M512-43.52c-271.36 0-491.52 220.16-491.52 491.52s220.16 491.52 491.52 491.52c271.36 0 491.52-220.16 491.52-491.52s-220.16-491.52-491.52-491.52zM512 852.48c-225.28 0-404.48-184.32-404.48-404.48s184.32-404.48 404.48-404.48 404.48 184.32 404.48 404.48-179.2 404.48-404.48 404.48zM512 407.040c-10.24 0-15.36 0-20.48 5.12l-378.88 245.76 46.080 71.68 343.040-220.16 209.92 348.16 71.68-51.2-235.52-384c-5.12-10.24-15.36-15.36-25.6-20.48-5.12 5.12-5.12 5.12-10.24 5.12zM930.414 618.685l24.068-78.307-430.69-132.375-24.068 78.307 430.69 132.375z" />
<glyph unicode="&#xe92f;" glyph-name="circulate" d="M931.84 299.52c20.48 35.84 35.84 76.8 40.96 117.76v0c0 10.24 0 20.48 0 30.72 0 143.36-102.4 261.12-235.52 286.72-20.48 5.12-40.96 5.12-56.32 5.12h-337.92c-25.6 0-46.080-5.12-71.68-10.24-10.24 0-25.6-5.12-35.84-10.24l107.52-61.44c0 0 0 0 0 0h337.92c117.76 0 209.92-92.16 209.92-209.92 0-10.24 0-20.48 0-30.72-5.12-51.2-30.72-97.28-71.68-128-15.36-10.24-20.48-30.72-10.24-46.080 5.12-15.36 20.48-25.6 40.96-25.6h153.6v81.92h-71.68zM87.040 601.6c-20.48-40.96-35.84-81.92-35.84-122.88v0c0-10.24 0-20.48 0-30.72 0-143.36 102.4-261.12 235.52-286.72 20.48-5.12 40.96-5.12 56.32-5.12h337.92c25.6 0 46.080 5.12 71.68 10.24 15.36 5.12 25.6 5.12 35.84 10.24l-107.52 61.44c0 0 0 0 0 0h-337.92c-117.76 0-209.92 92.16-209.92 209.92 0 10.24 0 20.48 0 30.72 5.12 51.2 30.72 97.28 71.68 128 10.24 15.36 15.36 30.72 10.24 46.080-5.12 20.48-20.48 30.72-40.96 30.72h-153.6v-81.92h66.56z" />
<glyph unicode="&#xe930;" glyph-name="menu" d="M245.76 826.88c0 5.12-5.12 5.12-10.24 5.12l-56.32 10.24-25.6 51.2c0 5.12-5.12 5.12-10.24 5.12s-10.24 0-10.24-5.12l-25.6-51.2-51.2-10.24c-5.12 0-10.24 0-10.24-5.12s0-10.24 5.12-10.24l40.96-40.96-15.36-61.44c0-5.12 0-10.24 5.12-10.24 0 0 5.12 0 5.12 0s5.12 0 5.12 0l51.2 25.6 51.2-25.6c0 0 5.12 0 5.12 0 5.12-5.12 10.24 0 10.24 10.24 0 0 0 0 0 5.12l-10.24 51.2 40.96 40.96c5.12 5.12 5.12 10.24 5.12 15.36zM363.52 842.24h604.16v-81.92h-604.16v81.92zM245.76 473.6c0 5.12-5.12 5.12-10.24 5.12l-56.32 10.24-25.6 51.2c0 5.12-5.12 10.24-10.24 10.24s-10.24 0-10.24-5.12l-25.6-51.2-51.2-15.36c-5.12 0-10.24 0-10.24-5.12s0-10.24 5.12-10.24l40.96-40.96-10.24-56.32c0-5.12 0-10.24 5.12-10.24 0 0 5.12 0 5.12 0s5.12 0 5.12 0l51.2 25.6 51.2-25.6c0 0 5.12 0 5.12 0 5.12 0 10.24 5.12 10.24 10.24 0 0 0 0 0 5.12l-10.24 56.32 40.96 40.96c0-5.12 0 0 0 5.12zM363.52 488.96h604.16v-81.92h-604.16v81.92zM245.76 120.32c0 5.12-5.12 5.12-10.24 5.12l-56.32 10.24-25.6 51.2c0 5.12-5.12 5.12-10.24 5.12s-10.24 0-10.24-5.12l-25.6-51.2-56.32-10.24c-5.12 0-5.12-5.12-10.24-5.12 0-5.12 0-10.24 5.12-10.24l40.96-40.96-10.24-56.32c0-5.12 0-10.24 5.12-10.24 0 0 5.12 0 5.12 0s5.12 0 5.12 0l51.2 25.6 51.2-25.6c0 0 5.12 0 5.12 0 5.12 0 10.24 5.12 10.24 10.24 0 0 0 0 0 5.12l-10.24 56.32 40.96 40.96c5.12-5.12 5.12 0 5.12 5.12zM363.52 135.68h604.16v-81.92h-604.16v81.92z" />
<glyph unicode="&#xe931;" glyph-name="upload" d="M840.533 42.667h-657.067c-64 0-115.2 51.2-115.2 115.2v204.8h64v-204.8c0-29.867 25.6-51.2 51.2-51.2h657.067c29.867 0 51.2 25.6 51.2 51.2v204.8h64v-204.8c0-59.733-51.2-115.2-115.2-115.2zM477.867 802.133h64v-563.2h-64v563.2zM354.133 597.333l-46.933 46.933 204.8 204.8 204.8-200.533-46.933-46.933-157.867 157.867z" />
<glyph unicode="&#xe932;" glyph-name="clear_text" d="M512 883.2c-238.933 0-435.2-196.267-435.2-435.2s196.267-435.2 435.2-435.2 435.2 196.267 435.2 435.2-196.267 435.2-435.2 435.2zM755.2 251.733l-46.933-46.933-196.267 196.267-196.267-196.267-46.933 46.933 196.267 196.267-196.267 196.267 46.933 46.933 196.267-196.267 196.267 196.267 46.933-46.933-196.267-196.267 196.267-196.267z" />
<glyph unicode="&#xe933;" glyph-name="liked" d="M550.4 874.667l106.667-213.333c8.533-21.333 29.867-34.133 51.2-38.4l234.667-34.133c34.133-4.267 51.2-51.2 25.6-76.8l-170.667-166.4c-17.067-17.067-25.6-38.4-21.333-64l38.4-234.667c4.267-34.133-29.867-64-64-46.933l-213.333 110.933c-21.333 12.8-46.933 12.8-64 0l-213.333-110.933c-34.133-17.067-68.267 8.533-64 46.933l38.4 234.667c4.267 21.333-4.267 46.933-21.333 64l-170.667 166.4c-17.067 25.6 0 72.533 34.133 76.8l234.667 34.133c21.333 4.267 42.667 17.067 51.2 38.4l106.667 213.333c21.333 34.133 64 34.133 81.067 0z" />
<glyph unicode="&#xe934;" glyph-name="pick_coin" d="M832 746.667h-635.733c-46.933 0-85.333-38.4-85.333-85.333v-128c0-46.933 38.4-85.333 85.333-85.333h42.667c0-8.533 0-17.067 0-25.6 0-153.6 123.733-277.333 277.333-277.333s277.333 123.733 277.333 277.333c0 8.533 0 17.067 0 25.6h42.667c46.933 0 85.333 38.4 85.333 85.333v128c-4.267 46.933-42.667 85.333-89.6 85.333zM512 209.067c-115.2 0-213.333 93.867-213.333 213.333 0 55.467 21.333 102.4 55.467 145.067h307.2c38.4-38.4 55.467-89.6 55.467-145.067 8.533-115.2-89.6-213.333-204.8-213.333zM853.333 533.333c0-12.8-8.533-21.333-21.333-21.333h-59.733c-8.533 17.067-17.067 38.4-25.6 55.467h4.267c17.067 0 34.133 12.8 34.133 34.133s-12.8 34.133-34.133 34.133h-482.133c-17.067 0-34.133-12.8-34.133-34.133s12.8-34.133 34.133-34.133h4.267c-8.533-17.067-17.067-34.133-25.6-55.467h-59.733c-12.8 0-21.333 8.533-21.333 21.333v128c0 12.8 8.533 21.333 21.333 21.333h635.733c12.8 0 21.333-8.533 21.333-21.333v-128zM593.067 430.933h-34.133l38.4 38.4c12.8 12.8 12.8 34.133 0 46.933s-34.133 12.8-46.933 0l-42.667-42.667-42.667 42.667c-12.8 12.8-34.133 12.8-46.933 0s-12.8-34.133 0-46.933l38.4-38.4h-34.133c-17.067 0-34.133-12.8-34.133-34.133s12.8-34.133 34.133-34.133h51.2v-51.2c0-17.067 12.8-34.133 34.133-34.133s34.133 12.8 34.133 34.133v51.2h51.2c17.067 0 34.133 12.8 34.133 34.133s-12.8 34.133-34.133 34.133z" />
<glyph unicode="&#xe935;" glyph-name="succeed_hollow" d="M452.267 379.733l-106.667 106.667-59.733-59.733 166.4-166.4 324.267 324.267-59.733 59.733zM512 917.333c-260.267 0-469.333-209.067-469.333-469.333s209.067-469.333 469.333-469.333 469.333 209.067 469.333 469.333-209.067 469.333-469.333 469.333zM512 64c-213.333 0-384 170.667-384 384s170.667 384 384 384c213.333 0 384-170.667 384-384s-170.667-384-384-384z" />
<glyph unicode="&#xe936;" glyph-name="point_out" d="M512 874.667c-234.667 0-426.667-192-426.667-426.667s192-426.667 426.667-426.667c234.667 0 426.667 192 426.667 426.667s-192 426.667-426.667 426.667zM512 106.667c-187.733 0-341.333 153.6-341.333 341.333s153.6 341.333 341.333 341.333 341.333-153.6 341.333-341.333-153.6-341.333-341.333-341.333zM512 576c25.6 0 42.667 17.067 42.667 42.667s-21.333 42.667-42.667 42.667c-25.6 0-42.667-17.067-42.667-42.667s21.333-42.667 42.667-42.667zM558.933 358.4v157.867l-8.533 4.267-115.2-29.867v-12.8l38.4-4.267c0-25.6 0-46.933 0-76.8v-42.667c0-29.867 0-72.533 0-102.4l-34.133-4.267v-17.067h149.333v17.067l-29.867 4.267c0 34.133 0 76.8 0 106.667z" />
<glyph unicode="&#xe937;" glyph-name="more" d="M448 857.6h128v-128h-128v128zM448 512h128v-128h-128v128zM448 166.4h128v-128h-128v128z" />
<glyph unicode="&#xe938;" glyph-name="fullscreen" d="M512 960c-281.6 0-512-230.4-512-512s230.4-512 512-512 512 230.4 512 512c0 281.6-230.4 512-512 512zM443.733 469.333l-157.867 157.867v-93.867h-64v204.8h204.8v-64h-93.867l157.867-157.867-46.933-46.933zM802.133 157.867h-204.8v64h93.867l-157.867 157.867 46.933 46.933 157.867-157.867v93.867h64v-204.8z" />
<glyph unicode="&#xe939;" glyph-name="transaction" d="M512 827.733c-209.067 0-379.733-170.667-379.733-379.733s170.667-379.733 379.733-379.733 379.733 170.667 379.733 379.733-170.667 379.733-379.733 379.733zM512 132.267c-174.933 0-315.733 140.8-315.733 315.733s140.8 315.733 315.733 315.733 315.733-140.8 315.733-315.733c0-174.933-140.8-315.733-315.733-315.733zM704 499.2h-418.133v64h337.067l-55.467 51.2 42.667 46.933 110.933-106.667c8.533-8.533 12.8-21.333 8.533-34.133 0-12.8-12.8-21.333-25.6-21.333zM409.6 230.4l-110.933 106.667c-8.533 8.533-12.8 21.333-8.533 34.133s17.067 21.333 29.867 21.333h418.133v-64h-337.067l55.467-51.2-46.933-46.933z" />
<glyph unicode="&#xe93a;" glyph-name="add" d="M85.333 874.667v-853.333h853.333v853.333h-853.333zM853.333 106.667h-682.667v682.667h682.667v-682.667zM469.333 277.333h85.333v128h128v85.333h-128v128h-85.333v-128h-128v-85.333h128z" />
<glyph unicode="&#xe93b;" glyph-name="back" d="M712.533-17.067l-469.333 465.067 469.333 465.067 42.667-42.667-418.133-422.4 418.133-422.4z" />
<glyph unicode="&#xe93c;" glyph-name="diabolo" d="M947.2 136.533l-38.4 149.333c-12.8 42.667-17.067 89.6-17.067 136.533v51.2c0 204.8-157.867 379.733-354.133 392.533-106.667 8.533-209.067-29.867-285.867-102.4s-119.467-170.667-119.467-277.333v-64c0-46.933-4.267-89.6-17.067-136.533l-38.4-149.333h238.933c17.067-89.6 98.133-157.867 196.267-157.867s179.2 68.267 196.267 162.133h238.933zM196.267 264.533c12.8 51.2 21.333 102.4 21.333 157.867v64c0 81.067 34.133 157.867 93.867 213.333s136.533 85.333 221.867 81.067c153.6-8.533 273.067-145.067 273.067-307.2v-51.2c0-51.2 8.533-106.667 21.333-157.867l12.8-42.667h-652.8l8.533 42.667zM512 64c-51.2 0-93.867 29.867-106.667 76.8h217.6c-17.067-46.933-59.733-76.8-110.933-76.8z" />
<glyph unicode="&#xe93d;" glyph-name="heart" d="M682.667 793.6c-76.8 0-136.533-51.2-174.933-93.867-34.133 42.667-93.867 93.867-174.933 93.867-140.8 0-256-119.467-256-268.8 0-68.267 46.933-166.4 106.667-217.6 68.267-81.067 281.6-260.267 328.533-260.267s260.267 179.2 320 260.267c59.733 51.2 106.667 149.333 106.667 217.6 0 149.333-115.2 268.8-256 268.8z" />
<glyph unicode="&#xe93e;" glyph-name="heart_hollow" d="M512 46.933c-46.933 0-260.267 179.2-328.533 260.267-59.733 51.2-106.667 149.333-106.667 217.6 0 149.333 115.2 268.8 256 268.8 81.067 0 140.8-51.2 174.933-93.867 38.4 42.667 98.133 93.867 174.933 93.867 140.8 0 256-119.467 256-268.8 0-68.267-46.933-166.4-106.667-217.6-59.733-81.067-273.067-260.267-320-260.267v0zM337.067 721.067c-102.4 0-183.467-89.6-183.467-196.267 0-51.2 38.4-123.733 85.333-166.4l4.267-4.267c64-81.067 226.133-204.8 268.8-234.667 46.933 25.6 204.8 153.6 273.067 234.667l4.267 4.267c46.933 38.4 85.333 115.2 85.333 166.4 0 106.667-81.067 196.267-183.467 196.267-72.533 0-132.267-76.8-145.067-102.4l-34.133-46.933-29.867 46.933c-17.067 25.6-72.533 102.4-145.067 102.4v0z" />
<glyph unicode="&#xe93f;" glyph-name="menu_list" d="M136.533 819.2h64v-64h-64v64zM285.867 819.2h597.333v-64h-597.333v64zM136.533 627.2h64v-64h-64v64zM285.867 627.2h597.333v-64h-597.333v64zM136.533 328.533h64v-64h-64v64zM285.867 328.533h597.333v-64h-597.333v64zM136.533 140.8h64v-64h-64v64zM285.867 140.8h597.333v-64h-597.333v64z" />
<glyph unicode="&#xe940;" glyph-name="zoom" d="M136.533 567.467h-64v320h320v-64h-256zM951.467 8.533h-320v64h256v256h64zM392.533 8.533h-320v320h64v-256h256zM951.467 567.467h-64v256h-256v64h320z" />
<glyph unicode="&#xe941;" glyph-name="arrow_up" d="M797.867 302.933v371.2c0 29.867-25.6 51.2-51.2 51.2h-371.2c-29.867 0-51.2-25.6-51.2-51.2 0-29.867 25.6-51.2 51.2-51.2h247.467l-358.4-358.4c-21.333-21.333-21.333-55.467 0-72.533s55.467-21.333 72.533 0l358.4 358.4v-247.467c0-12.8 4.267-29.867 17.067-38.4 8.533-8.533 21.333-17.067 38.4-17.067 21.333 4.267 46.933 29.867 46.933 55.467v0z" />
<glyph unicode="&#xe942;" glyph-name="arrow_down" d="M371.2 179.2h371.2c29.867 0 51.2 25.6 51.2 51.2v371.2c0 29.867-25.6 51.2-51.2 51.2s-51.2-25.6-51.2-51.2v-247.467l-358.4 358.4c-21.333 21.333-55.467 21.333-72.533 0s-21.333-55.467 0-72.533l358.4-358.4h-247.467c-12.8 0-29.867-4.267-38.4-17.067s-17.067-21.333-17.067-38.4c4.267-25.6 25.6-46.933 55.467-46.933v0z" />
<glyph unicode="&#xe943;" glyph-name="chart" d="M170.667 298.667l204.8 204.8 209.067-209.067 324.267 324.267-59.733 59.733-264.533-264.533-209.067 209.067-204.8-204.8v413.867h-85.333v-810.667h810.667v85.333h-725.333z" />
<glyph unicode="&#xe944;" glyph-name="kline" d="M349.867 849.067h-85.333v-115.2h-136.533v-541.867h136.533v-149.333h85.333v149.333h136.533v541.867h-136.533v115.2zM396.8 281.6h-183.467v366.933h183.467v-366.933zM896 652.8h-136.533v196.267h-85.333v-196.267h-136.533v-358.4h136.533v-149.333h85.333v149.333h136.533v358.4zM810.667 379.733h-183.467v187.733h183.467v-187.733z" />
<glyph unicode="&#xe945;" glyph-name="right_angled" d="M110.933 72.533h768v768z" />
<glyph unicode="&#xe946;" glyph-name="sort_down" d="M597.333 345.6v490.667h-170.667v-490.667h-128l213.333-285.867 213.333 285.867z" />
</font>
</defs>
</svg>
